<?xml version="1.0" encoding="UTF-8"?>
<svg xmlns="http://www.w3.org/2000/svg" xml:space="preserve" width="148mm" height="210mm" version="1.1" style="shape-rendering:geometricPrecision; text-rendering:geometricPrecision; image-rendering:optimizeQuality; fill-rule:evenodd; clip-rule:evenodd"
viewBox="0 0 14800 21000"
 xmlns:xlink="http://www.w3.org/1999/xlink">
 <defs>
  <style type="text/css">
   <![CDATA[
    .fil0 {fill:#FEFEFE}
   ]]>
  </style>
 </defs>
 <g id="Слой_x0020_1">
  <metadata id="CorelCorpID_0Corel-Layer"/>
  <g id="_2558021835232">
   <path class="fil0" d="M5193 7205l-7 -11 7 11zm27 -33c6,-6 21,9 6,3 0,0 -15,6 -6,-3zm-373 -252l0 0zm165 -505l1 2c0,0 -2,-1 -1,-2zm5 -22l0 0zm269 -55l2 2c-1,0 -3,-1 -2,-2zm-269 55c-23,35 -9,17 -16,47l-51 155c-17,42 -10,37 -17,55l-67 181c-6,35 -30,65 -19,89 -22,16 -3,-1 -10,47l0 94c7,83 54,123 63,138 6,13 41,37 58,43 47,15 126,16 171,-8 13,-7 -6,3 7,-4l53 -23c1,-1 3,-1 4,-2 12,-8 16,-13 33,-17 -2,23 -11,32 -19,53 -1,2 -4,10 -5,12 0,1 -1,2 -2,3 0,2 -1,3 -1,4l-43 78c-37,55 -90,115 -142,154 -29,22 -54,47 -88,60 -34,13 -79,25 -117,27 -1,1 -9,1 -11,1 -2,0 -6,1 -7,2l-80 -16c-41,-7 -69,-28 -101,-47 -25,-14 -20,-27 -48,-29 -15,4 -49,84 -61,104 -29,51 -56,120 -76,154 -8,14 -17,21 -22,38 26,18 19,19 58,30 42,12 76,31 117,39 2,0 5,1 7,1 0,0 2,0 3,1 56,14 103,25 160,16l113 -24c28,-6 22,-11 45,-17 25,-7 34,-4 29,-29 19,4 28,7 47,-3l108 -67c55,-40 72,-69 113,-112 3,-3 6,-6 6,-8l-5 -19c43,-1 64,-66 81,-100 6,-12 3,-7 8,-19l87 -170c10,-17 10,-21 16,-39 8,-22 20,-51 31,-74 23,-47 50,-152 87,-231l95 -267c5,-15 6,-29 11,-43 16,-43 88,-200 88,-230 -19,9 -33,7 -58,13 -21,5 -35,14 -56,20 -65,20 -47,18 -73,81 -19,47 -43,100 -55,150l-6 20c0,0 -6,11 -7,14l-55 131c-18,36 -32,68 -50,104 -21,42 -42,62 -83,80 -1,0 -2,0 -3,1l-11 5c-17,7 -65,5 -77,2 -31,-9 -61,-54 -56,-87 5,-35 -5,-62 3,-92 8,-26 10,-53 20,-77l63 -174c0,-1 1,-2 1,-3l6 -16c8,-20 4,-11 12,-27 8,-13 8,-14 11,-23l2 -6c0,-1 0,-2 0,-3l41 -122c8,-21 18,-31 23,-54 16,-75 31,-113 24,-195 -14,4 -4,-1 -16,5 0,-1 2,-4 2,-3 0,0 2,-3 2,-4 5,-12 3,4 4,-10 0,-20 -28,-51 -40,-66l-5 -6c-1,-1 -2,-2 -3,-3 -14,-16 -32,-25 -52,-36 -13,-7 -23,-14 -44,-14l-87 20c-1,0 -2,1 -3,1l-10 3c-13,3 -20,9 -29,23l-109 226c-10,21 -36,60 -37,83 22,-2 27,-10 43,-22 25,-21 42,-47 77,-38l0 71z"/>
   <path class="fil0" d="M6849 7364l219 -582c12,-29 67,-91 90,-108 12,-9 33,-17 53,-18 -13,25 -26,65 -36,96l-116 350c-6,15 -13,30 -20,46l-27 72c-23,48 -14,48 -26,78 -13,30 -40,29 -85,46 -18,7 -35,16 -52,20zm-548 208c2,12 94,214 104,214 15,0 30,-9 45,-15 17,-6 35,-6 40,-20 9,-23 -28,-56 -30,-86 67,-32 390,-110 491,-138l33 -11c2,-1 3,-1 5,-2 62,-19 141,-32 240,-66 24,-8 90,-29 114,-29 -13,23 -99,154 -63,149l83 -30c55,-19 62,-17 80,-52 16,-31 33,-51 50,-81 9,-17 14,-27 23,-43 10,-16 19,-24 24,-42 -20,-2 -38,-18 -54,-28 -17,-10 -35,-18 -52,-30 -141,-93 -90,-64 -190,-41 0,-10 5,-42 7,-53 23,-88 74,-283 88,-362l89 -361c6,-22 13,-24 13,-52 -87,0 -118,27 -187,43 -23,5 -37,7 -58,13 -46,14 -107,37 -147,68l-27 28c-59,67 -66,121 -100,212 -8,20 -10,33 -16,55 -7,22 -12,33 -19,52l-113 299c-2,5 -4,11 -6,16l-71 143c-59,89 -92,137 -190,177l-206 73z"/>
   <path class="fil0" d="M6339 6996c6,-11 16,-28 21,-39 8,-17 0,-27 28,-92l38 -89c5,-15 8,-38 18,-48 11,-12 30,-10 50,-15l53 -13c-2,12 -12,38 -16,49 -24,58 -65,226 -90,238l-102 9zm-614 697c64,-15 12,4 94,-27l21 -6 0 -22c17,12 16,13 40,2 51,-23 36,-20 59,-34 10,-6 12,-6 22,-11 68,-36 119,-111 134,-125 20,-19 20,-11 14,-40 19,8 8,7 19,-2l33 -45c5,-10 9,-16 13,-25 9,-17 15,-29 23,-48l76 -149c18,-29 62,-18 86,-19 10,-1 21,-3 35,-3 -1,40 -20,45 -29,86 -11,47 -21,41 -32,83l-41 130c-6,17 -12,31 -13,46 77,0 105,-10 171,-20 112,-16 76,22 138,-247l7 -34c4,-23 7,-6 20,-75 2,-14 6,-22 9,-40 5,-30 16,-46 19,-74l3 -25c22,-66 33,-135 47,-205 16,-84 42,-157 61,-230 3,-15 5,-27 9,-41 10,-37 15,2 15,-67 -40,1 -6,13 -51,21 -79,14 -124,35 -142,38l-148 34c-7,2 -12,5 -25,8 -13,4 -18,4 -27,6 -12,3 -7,-5 -20,12 -10,14 -151,337 -188,399l-81 165c-14,23 -32,64 -52,91l-35 42c-13,13 -24,21 -36,36 -11,14 -5,8 -18,20l-60 49c-74,52 -85,49 -90,53 -12,8 -20,38 -23,54l-57 239z"/>
   <path class="fil0" d="M7803 6728c-26,0 -88,3 -104,11 8,-35 12,-10 24,-70 5,-27 15,-44 25,-68l50 -137 76 -16c15,-3 15,-2 28,-6 -1,16 -17,55 -23,71 -24,64 -45,157 -76,215zm-455 405c62,0 44,17 112,47 21,9 -3,8 20,8 20,0 15,-15 21,-33 10,-28 122,-226 132,-268 99,0 133,-26 110,26 -9,19 -11,21 -17,44 -9,36 -26,56 -35,86l-43 139c-5,18 -13,22 -15,45 20,-1 66,-7 83,-9l160 -23c29,-10 24,-41 30,-68 6,-26 14,-51 18,-76l93 -395c4,-12 8,-24 10,-34 24,-135 35,-158 63,-277 5,-24 15,-48 22,-77 2,-10 5,-30 9,-40 12,-33 17,0 17,-54 -33,0 -23,3 -45,10 -21,7 -72,13 -122,32 -20,7 -23,8 -36,11l-195 47c-36,11 -69,124 -87,161l-109 231c-33,64 -37,60 -70,141l-5 9c0,1 -1,2 -2,3 0,1 -1,2 -2,3 0,2 -1,3 -2,4l-57 107c-23,40 -22,51 -38,106l-20 94z"/>
   <path class="fil0" d="M5270 7720l296 -77c116,-29 95,-8 121,-97l61 -230c5,-24 13,-47 21,-73l84 -287c2,-9 1,-16 1,-16l14 -31c19,-37 18,-53 29,-91l27 -72c8,-20 4,-14 24,-20 54,-16 49,-17 105,-22 21,-2 51,-12 75,-13l90 -2c9,-16 16,-27 25,-47l47 -106c15,-31 22,-32 27,-50 -20,0 -41,4 -65,7 -16,2 -44,4 -64,7 -127,20 -212,76 -368,16 -30,-11 -16,-14 -55,77l-202 494c-3,7 -2,5 -5,12 0,1 -1,3 -1,4 -1,1 -1,2 -2,4 0,1 -2,6 -3,7l-35 75c0,2 -1,3 -1,4l-45 99c0,1 -1,2 -1,4 0,1 -1,2 -2,4l-130 264c-16,37 -68,122 -68,156z"/>
   <path class="fil0" d="M8730 6086c0,57 -52,56 -71,60 -45,11 -173,-7 -203,-16l-170 -28 -60 6c-2,49 -50,196 -50,230 21,-5 71,-60 126,-60 53,0 88,13 132,16 -6,28 -58,138 -74,173 -7,15 -8,20 -16,34l-139 282c-1,1 -2,3 -2,4 -1,1 -2,2 -2,3l-108 219c-5,13 2,-6 -3,9l-124 267c-10,21 -26,47 -31,68 24,-2 89,-26 117,-37l122 -37c55,-18 54,-56 85,-123l60 -149c11,-25 18,-47 28,-76 7,-22 18,-52 29,-75l201 -534c76,0 183,36 264,-48 10,-10 17,-18 23,-32 43,-98 -18,-205 -139,-205 0,24 5,21 5,49z"/>
   <path class="fil0" d="M8631 7139l96 -256c7,-15 14,-19 31,-29 37,-23 112,-27 144,4 34,32 31,32 31,78 0,77 -51,114 -113,140l-93 32c-43,10 -63,13 -96,31zm-345 214c39,0 148,-51 205,-64l210 -64c34,-12 57,-10 102,-24 1,0 2,-1 3,-1 66,-19 110,-17 173,-114 23,-37 18,-10 41,-68 25,-64 44,-127 24,-193 -11,-39 -14,-63 -74,-107 -7,-5 -28,-16 -36,-19 -13,-4 -30,-5 -51,-5 -62,2 -38,12 -87,12 23,-100 95,-237 108,-287l67 -179c-24,6 -39,55 -79,85 -41,32 -38,47 -107,63 -57,13 -44,11 -72,70l-140 285c0,1 -1,2 -1,3l-10 16c-3,7 -1,6 -4,12l-37 73c-22,45 -63,126 -80,173 -16,45 -86,171 -103,210 -14,33 -51,106 -52,123z"/>
   <path class="fil0" d="M5741 8587c-142,0 -37,-219 101,-224 51,-2 69,46 69,48 0,30 -40,91 -60,110 -22,21 -47,43 -74,58 -13,6 -20,8 -36,8zm-44 181c69,0 102,-15 158,-57 60,-45 13,3 105,-80 53,-48 82,-112 97,-183 12,-55 6,-121 -12,-160 -30,-67 -101,-99 -173,-99 -56,0 -123,4 -164,52l-66 72c1,-26 40,-113 54,-144 4,-8 8,-18 13,-26l32 -50c185,-223 143,54 205,-80l69 -139c-25,-39 -62,-55 -111,-53 -18,1 0,-1 -20,0 -38,3 -73,22 -100,46 -64,55 -62,56 -105,120 -1,1 -2,2 -3,3l-28 38c-26,41 -79,154 -93,208 -27,101 -59,292 -25,398l44 76c5,8 6,10 12,15 20,14 76,43 111,43z"/>
   <path class="fil0" d="M6344 8362c-36,0 -47,6 -58,-46 -6,-29 -6,-38 -2,-63 8,-40 31,-122 63,-151 5,-5 6,-5 12,-10 21,-19 19,-28 52,-32 41,-5 65,-3 65,83l-12 68c-6,25 -4,34 -21,63 -16,28 -58,88 -99,88zm170 66c24,-3 37,-30 48,-51 7,-13 10,-21 17,-33l29 -69c28,-67 35,-111 19,-185 -1,-6 -4,-20 -6,-27 -1,-2 -2,-6 -3,-10l-16 -48c-12,-24 -19,-41 -44,-43l0 -17c-43,-5 15,1 -51,-25 -42,-16 -62,-13 -108,-13 -2,0 -102,29 -132,54l-59 56c-43,53 -109,262 -99,340 12,99 38,183 162,200 49,6 153,-30 201,-73 35,-31 42,-31 42,-56z"/>
   <path class="fil0" d="M7666 7863c0,-30 27,-155 33,-181 -18,0 -73,19 -83,26 -22,17 -69,202 -84,251l-51 174c-9,30 -15,56 -25,85 -11,33 -20,54 -20,95l86 -56c106,-70 69,-51 86,-134l13 -58c8,-36 23,-88 23,-125 20,5 23,13 39,43 9,18 15,38 23,59 19,48 48,134 82,171 58,62 113,78 202,78 20,0 38,-57 49,-83 15,-33 28,-62 44,-93 -26,1 -13,1 -32,7 -179,56 -204,9 -262,-107 -19,-38 -43,-61 -62,-97 32,-16 59,-24 93,-66l61 -82c1,-3 4,-9 7,-15l49 -66c37,-43 17,-11 44,-82 6,-15 25,-47 15,-57 -18,-18 -91,34 -104,45 -91,86 -78,140 -134,195l-38 45c-12,15 -32,16 -54,28z"/>
   <path class="fil0" d="M8785 7863l0 0zm0 0l111 -301c11,-25 39,-59 70,-67l-94 279c-4,11 -7,16 -12,27 -6,17 0,56 -75,62zm-296 115c20,37 35,78 55,115 22,-11 47,-10 44,-30 -3,-21 -9,-15 -11,-41 29,-1 79,-22 112,-30l235 -62c39,-12 73,-25 113,-34 -6,25 -31,51 -38,82 22,-5 78,-25 92,-45 20,-27 34,-56 50,-87 -141,-75 -76,-72 -153,-54 0,-24 77,-337 88,-378l16 -56c-49,0 -189,38 -223,79 -65,75 -112,437 -266,501l-85 31c-14,5 -17,3 -29,9z"/>
   <path class="fil0" d="M5067 8439c27,-41 9,-31 29,-75 35,-78 16,-88 86,-90 -2,16 -27,86 -33,104 -6,19 -5,42 -21,51 -8,4 -50,9 -61,10zm-351 395c53,0 132,-50 174,-83 25,-19 23,-24 40,-49 1,-2 6,-10 9,-13 53,-64 18,-16 60,-93 29,-53 20,-67 58,-73 15,-3 27,-2 42,-2l-26 72c-5,10 -7,10 -11,22l-28 103 148 -21c4,-50 22,-99 31,-145 6,-28 13,-43 17,-70l48 -216c10,-37 35,-113 35,-145l-194 47c-58,12 -40,31 -99,148l-82 165c-15,38 -36,72 -63,101l-40 42c-92,77 -67,-15 -119,210z"/>
   <path class="fil0" d="M8187 7704c-89,0 -34,-128 -24,-162l35 -96 -145 52c-7,7 -110,225 -9,294 21,14 45,17 69,13 32,-5 51,-18 74,-30 -4,52 -81,136 -129,167 -46,30 -93,17 -123,14 -8,33 -44,97 -55,143 29,7 7,11 55,11 39,0 88,-18 117,-31 124,-55 152,-126 209,-241 29,-57 58,-153 84,-218 25,-66 54,-162 84,-218 -21,1 -38,6 -55,12 -45,14 -37,36 -74,128 -24,61 -55,162 -113,162z"/>
   <path class="fil0" d="M8604 7600c-29,2 -67,10 -93,16l38 -121c10,-27 32,-94 33,-126 -116,27 -81,27 -120,116l-150 365c-15,31 -51,102 -54,128l136 -45c16,-6 18,2 28,-38 16,-62 57,-168 61,-186 33,0 50,-11 83,-11l-55 160c-18,46 -8,37 43,32l94 -16 46 -195c6,-28 9,-43 15,-68 9,-40 20,-86 30,-129l30 -135c-91,22 -87,8 -113,96 -10,33 -17,43 -27,78 -8,29 -19,51 -25,79z"/>
   <path class="fil0" d="M4617 8230c66,-1 82,-65 175,-44 1,45 32,56 -56,120 -25,18 -72,34 -114,34 -7,33 -37,81 -38,115 20,-1 79,-22 123,-2 76,33 12,179 -177,133 -17,-5 -28,-12 -45,-16 -9,40 -43,82 -44,121 69,16 69,21 148,16 65,-4 128,-35 175,-77 13,-12 12,-9 23,-21 53,-62 82,-79 82,-165 0,-26 -6,-34 -17,-49 -14,-19 -22,-19 -32,-33 11,-15 12,-8 26,-24 7,-8 13,-17 22,-27 21,-26 49,-107 28,-151 -38,-77 -86,-86 -159,-72 -77,14 -78,34 -91,67 -9,22 -27,55 -29,75z"/>
   <path class="fil0" d="M7178 8269c-82,-55 -70,-22 -137,-22 -126,0 -28,-252 38,-252 68,0 25,18 86,-19 20,-11 46,-25 57,-42 -29,-44 -99,-70 -156,-57 -17,4 -18,6 -26,9 -7,2 -11,1 -25,6 -9,3 -14,6 -25,13 -52,31 -80,70 -102,129 -7,20 -12,36 -19,57 -13,38 -23,86 -22,126 2,46 15,90 36,116 75,93 200,37 270,-29l25 -35z"/>
   <path class="fil0" d="M7310 8104l0 0zm0 0c1,-14 16,-58 22,-66 22,-33 100,-9 117,-57 8,-20 15,-50 20,-69 -38,1 -68,17 -104,17 1,-22 10,-44 15,-61 9,-28 5,-35 33,-45 18,-6 40,-8 63,-13 24,-5 45,-12 70,-13 0,-36 24,-86 32,-121 -34,3 -226,71 -257,72 -16,67 -64,200 -90,261l-9 26c-3,8 0,-2 -4,10 -83,205 -88,180 -2,177l198 -14c17,-8 10,5 27,-50 5,-17 15,-47 17,-65 -63,0 -94,11 -148,11z"/>
   <path class="fil0" d="M9092 6437l0 16c72,6 147,133 154,209l16 0c7,-80 82,-203 154,-209l0 -16c-70,-6 -154,-135 -154,-214l-16 0c-2,63 -63,193 -154,214z"/>
   <path class="fil0" d="M4310 6251l0 16c84,20 148,148 153,214l11 0c6,-66 75,-196 154,-214l0 -16c-78,-7 -148,-150 -154,-214l-11 0c-6,77 -80,207 -153,214z"/>
   <path class="fil0" d="M4546 6859l0 11c33,8 56,32 73,58 15,22 34,65 36,96l11 0c5,-61 57,-141 110,-154l0 -11c-61,-14 -105,-98 -110,-153l-11 0c-5,66 -52,140 -109,153z"/>
   <path class="fil0" d="M9070 5982l0 11c40,3 76,60 77,104l11 0c4,-44 38,-95 77,-104l0 -11c-39,-9 -76,-63 -77,-110l-11 0c0,43 -27,98 -77,110z"/>
   <path class="fil0" d="M4743 5921l0 11c38,9 73,61 77,105l11 0c3,-44 38,-96 77,-105l0 -11c-43,-3 -74,-60 -77,-104l-11 0c-1,23 -13,50 -23,65 -13,20 -25,37 -54,39z"/>
   <path class="fil0" d="M9070 6996c10,36 43,6 66,105 24,-18 7,-44 51,-81 13,-11 16,-6 20,-24 -36,-8 -59,-44 -60,-87l-11 0c-8,33 -27,84 -66,87z"/>
   <path class="fil0" d="M4200 7090l0 11c39,9 57,49 66,87l11 0c1,-38 30,-79 60,-87l0 -11c-31,-9 -59,-50 -60,-88l-11 0c-9,39 -27,79 -66,88z"/>
   <polygon class="fil0" points="5500,7737 5516,7737 5516,7731 5500,7731 "/>
   <path class="fil0" d="M7474 7885c-2,12 8,4 8,-1 0,0 -1,-1 -1,-1 -11,-3 -5,-7 -7,2z"/>
   <path class="fil0" d="M5604 7715c1,0 2,-3 2,-2l0 0c0,0 -2,1 -2,2z"/>
   <path class="fil0" d="M7090 8236l2 -2c0,0 -2,1 -2,2z"/>
  </g>
 </g>
</svg>
